<?xml version="1.0" standalone="no"?>
<!DOCTYPE svg PUBLIC "-//W3C//DTD SVG 20010904//EN"
 "http://www.w3.org/TR/2001/REC-SVG-20010904/DTD/svg10.dtd">
<svg version="1.0" xmlns="http://www.w3.org/2000/svg"
 width="259.000000pt" height="259.000000pt" viewBox="0 0 259.000000 259.000000"
 preserveAspectRatio="xMidYMid meet">
<metadata>
Created by potrace 1.11, written by Peter Selinger 2001-2013
</metadata>
<g transform="translate(0.000000,259.000000) scale(0.100000,-0.100000)"
fill="#000000" stroke="none">
<path d="M210 1295 l0 -1295 1085 0 1085 0 0 1295 0 1295 -1085 0 -1085 0 0
-1295z m2090 0 l0 -1215 -1005 0 -1005 0 0 1215 0 1215 1005 0 1005 0 0 -1215z"/>
<path d="M690 1885 l0 -355 205 0 205 0 0 25 0 25 -175 0 -175 0 0 330 0 330
-30 0 -30 0 0 -355z"/>
<path d="M1430 1885 l0 -355 220 0 220 0 0 25 0 25 -190 0 -190 0 0 145 0 145
164 0 164 0 4 25 5 25 -168 0 -169 0 0 135 0 135 190 0 190 0 0 25 0 25 -220
0 -220 0 0 -355z"/>
<path d="M690 736 l0 -356 30 0 30 0 0 148 0 148 101 0 101 1 25 -39 c13 -22
36 -61 50 -86 79 -142 99 -167 131 -170 18 -2 32 -1 32 2 0 3 -39 71 -86 151
-47 81 -84 148 -82 149 2 2 24 17 50 34 60 41 90 101 87 174 -2 56 -25 112
-55 139 -53 46 -84 53 -251 57 l-163 4 0 -356z m303 293 c130 -36 144 -225 22
-283 -32 -16 -125 -22 -242 -17 -23 1 -23 2 -23 156 l0 155 103 0 c56 0 119
-5 140 -11z"/>
<path d="M1565 938 c-31 -84 -91 -240 -131 -347 -41 -107 -74 -198 -74 -202 0
-5 13 -9 29 -9 30 0 26 -8 81 143 l22 57 161 -2 161 -3 36 -95 c35 -92 37 -95
69 -98 29 -3 33 -1 26 15 -4 10 -18 47 -31 83 -14 36 -29 74 -34 85 -5 11 -36
94 -70 185 -92 244 -110 293 -120 318 -7 15 -18 22 -38 22 -28 0 -31 -5 -87
-152z m225 -300 c0 -5 -63 -8 -140 -8 l-140 0 31 88 c17 48 35 96 40 107 4 11
18 47 30 80 12 33 26 71 31 85 9 22 18 2 79 -160 38 -102 69 -188 69 -192z"/>
</g>
</svg>
